HIERARCHY
ROOT Hips
{
	OFFSET 0.000000 89.005402 0.000000
	CHANNELS 6 Xposition Yposition Zposition Xrotation Yrotation Zrotation
	JOINT Spine
	{
		OFFSET 0.116900 10.681000 0.373400
		CHANNELS 3 Xrotation Yrotation Zrotation
		JOINT Spine1
		{
			OFFSET 0.000000 13.840401 0.053500
			CHANNELS 3 Xrotation Yrotation Zrotation
			JOINT Spine2
			{
				OFFSET 0.000000 14.712700 -0.366200
				CHANNELS 3 Xrotation Yrotation Zrotation
				JOINT Neck
				{
					OFFSET 0.000000 35.415497 -3.314200
					CHANNELS 3 Xrotation Yrotation Zrotation
					JOINT Head
					{
						OFFSET 0.000000 16.899200 1.218300
						CHANNELS 3 Xrotation Yrotation Zrotation
						JOINT HeadTop_End
						{
							OFFSET 0.000000 22.206207 2.192500
							CHANNELS 3 Xrotation Yrotation Zrotation
							End Site
							{
								OFFSET 0.000000 22.314178 0.000000
							}
						}
					}
				}
				JOINT LeftShoulder
				{
					OFFSET 12.896400 26.716293 -4.548400
					CHANNELS 3 Xrotation Yrotation Zrotation
					JOINT LeftArm
					{
						OFFSET 19.027000 -4.857010 -1.718400
						CHANNELS 3 Xrotation Yrotation Zrotation
						JOINT LeftForeArm
						{
							OFFSET 24.179897 0.000000 0.000000
							CHANNELS 3 Xrotation Yrotation Zrotation
							JOINT LeftHand
							{
								OFFSET 27.156403 0.000000 0.000000
								CHANNELS 3 Xrotation Yrotation Zrotation
								JOINT LeftHandIndex1
								{
									OFFSET 16.441200 0.000000 0.000000
									CHANNELS 3 Xrotation Yrotation Zrotation
									JOINT LeftHandIndex2
									{
										OFFSET 4.821899 0.000000 0.000000
										CHANNELS 3 Xrotation Yrotation Zrotation
										JOINT LeftHandIndex3
										{
											OFFSET 6.386497 0.000000 0.000000
											CHANNELS 3 Xrotation Yrotation Zrotation
											JOINT LeftHandIndex4
											{
												OFFSET 5.188988 0.000000 0.000000
												CHANNELS 3 Xrotation Yrotation Zrotation
												End Site
												{
													OFFSET -0.178703 5.185913 0.000177
												}
											}
										}
									}
								}
								JOINT LeftHandThumb1
								{
									OFFSET 6.534897 -5.032593 5.900300
									CHANNELS 3 Xrotation Yrotation Zrotation
									JOINT LeftHandThumb2
									{
										OFFSET 3.818176 -2.204422 2.204423
										CHANNELS 3 Xrotation Yrotation Zrotation
										JOINT LeftHandThumb3
										{
											OFFSET 3.252098 -1.877594 1.877601
											CHANNELS 3 Xrotation Yrotation Zrotation
											JOINT LeftHandThumb4
											{
												OFFSET 5.251778 -3.032120 3.032117
												CHANNELS 3 Xrotation Yrotation Zrotation
												End Site
												{
													OFFSET 0.000023 6.780014 0.000000
												}
											}
										}
									}
								}
							}
						}
					}
				}
				JOINT RightShoulder
				{
					OFFSET -12.896300 26.716293 -4.548400
					CHANNELS 3 Xrotation Yrotation Zrotation
					JOINT RightArm
					{
						OFFSET -19.027000 -4.857010 -1.718400
						CHANNELS 3 Xrotation Yrotation Zrotation
						JOINT RightForeArm
						{
							OFFSET -24.179897 0.000000 0.000000
							CHANNELS 3 Xrotation Yrotation Zrotation
							JOINT RightHand
							{
								OFFSET -27.156403 0.000000 0.000000
								CHANNELS 3 Xrotation Yrotation Zrotation
								JOINT RightHandThumb1
								{
									OFFSET -6.591202 -4.852203 5.988100
									CHANNELS 3 Xrotation Yrotation Zrotation
									JOINT RightHandThumb2
									{
										OFFSET -3.818176 -2.204422 2.204423
										CHANNELS 3 Xrotation Yrotation Zrotation
										JOINT RightHandThumb3
										{
											OFFSET -3.252098 -1.877594 1.877601
											CHANNELS 3 Xrotation Yrotation Zrotation
											JOINT RightHandThumb4
											{
												OFFSET -5.251778 -3.032120 3.032117
												CHANNELS 3 Xrotation Yrotation Zrotation
												End Site
												{
													OFFSET -0.000023 6.780014 0.000000
												}
											}
										}
									}
								}
								JOINT RightHandIndex1
								{
									OFFSET -16.029404 0.000000 0.000000
									CHANNELS 3 Xrotation Yrotation Zrotation
									JOINT RightHandIndex2
									{
										OFFSET -5.213303 0.000000 0.000000
										CHANNELS 3 Xrotation Yrotation Zrotation
										JOINT RightHandIndex3
										{
											OFFSET -6.386528 0.000000 0.000000
											CHANNELS 3 Xrotation Yrotation Zrotation
											JOINT RightHandIndex4
											{
												OFFSET -5.189026 0.000000 0.000000
												CHANNELS 3 Xrotation Yrotation Zrotation
												End Site
												{
													OFFSET 0.236702 5.183624 0.001972
												}
											}
										}
									}
								}
							}
						}
					}
				}
			}
		}
	}
	JOINT LeftUpLeg
	{
		OFFSET 14.073000 -7.904099 -1.463000
		CHANNELS 3 Xrotation Yrotation Zrotation
		JOINT LeftLeg
		{
			OFFSET -0.109806 -34.073280 4.093200
			CHANNELS 3 Xrotation Yrotation Zrotation
			JOINT LeftFoot
			{
				OFFSET 0.109806 -29.899420 -6.319000
				CHANNELS 3 Xrotation Yrotation Zrotation
				JOINT LeftToeBase
				{
					OFFSET 1.551100 -14.988700 20.535801
					CHANNELS 3 Xrotation Yrotation Zrotation
					JOINT LeftToe_End
					{
						OFFSET 0.221200 0.570800 13.248301
						CHANNELS 3 Xrotation Yrotation Zrotation
						End Site
						{
							OFFSET 0.000000 13.262435 0.000000
						}
					}
				}
			}
		}
	}
	JOINT RightUpLeg
	{
		OFFSET -13.839300 -7.904099 -1.463000
		CHANNELS 3 Xrotation Yrotation Zrotation
		JOINT RightLeg
		{
			OFFSET 0.109694 -34.073219 4.093300
			CHANNELS 3 Xrotation Yrotation Zrotation
			JOINT RightFoot
			{
				OFFSET -0.109694 -29.899384 -6.319200
				CHANNELS 3 Xrotation Yrotation Zrotation
				JOINT RightToeBase
				{
					OFFSET -1.551100 -14.988700 20.535801
					CHANNELS 3 Xrotation Yrotation Zrotation
					JOINT RightToe_End
					{
						OFFSET -0.221200 0.570900 13.248299
						CHANNELS 3 Xrotation Yrotation Zrotation
						End Site
						{
							OFFSET 0.000000 13.262440 0.000000
						}
					}
				}
			}
		}
	}
}
MOTION
Frames: 9
Frame Time: 0.033333
1.558669 85.790855 1.247669 -0.892861 1.583035 -5.010468 0.516464 -0.060556 3.019696 1.034940 -0.093099 5.734503 1.034939 -0.093099 5.734500 1.045294 -0.304693 -2.164065 1.584932 0.544179 -8.140496 -0.000000 0.000000 0.000000 3.582325 -13.764048 -5.044420 4.032765 3.514241 -83.678444 0.000009 -14.506695 0.000027 -27.058302 3.502337 -9.454549 0.337803 4.686226 -7.886936 0.352042 2.640667 -20.590430 0.025829 0.717436 -10.176842 0.000001 -0.000000 -0.000004 18.158968 -1.013683 11.037810 1.358255 32.830739 -3.242100 0.962809 9.482660 2.469819 -0.000000 0.000000 -0.000000 4.508120 3.324369 5.471383 -1.219634 0.655870 67.343200 -0.000742 17.736775 0.002441 -10.656952 -8.920775 10.234960 18.156352 1.010976 -11.042380 1.356348 -32.830998 3.239382 0.823159 -8.582389 -1.799015 -0.000000 0.000002 -0.000001 0.337526 -4.685607 7.880061 0.352094 -2.640971 20.590410 -0.209446 -0.081905 13.844945 0.000000 -0.000000 0.000005 -18.332615 10.735803 17.439669 25.953295 8.789383 2.294685 -6.629890 4.211064 -12.555162 -0.473495 -0.000013 0.000004 0.000000 -0.000001 0.000000 2.369008 -4.110329 11.281707 8.856646 -5.283530 3.334469 -10.503861 1.159241 -8.491724 -0.586298 -0.000001 0.000001 -0.000000 -0.000001 -0.000000 
1.505804 85.709511 1.443535 -0.937149 1.436111 -4.863729 0.510444 -0.022058 2.950540 1.021206 -0.017158 5.617906 1.021207 -0.017158 5.617909 1.074924 -0.326438 -2.133294 1.477569 0.419982 -7.789564 -0.000000 0.000000 -0.000000 3.462512 -13.566632 -5.334242 3.847636 3.243429 -83.145867 0.537586 -14.594093 0.146560 -26.547111 2.825100 -9.540689 0.337802 4.686233 -7.886937 0.352039 2.640663 -20.590416 0.025826 0.717436 -10.176835 -0.000001 -0.000000 0.000002 18.158982 -1.013680 11.037804 1.358223 32.830749 -3.242050 0.962812 9.482672 2.469832 0.000000 -0.000003 -0.000001 4.396399 3.402746 5.773482 -1.237730 0.699193 67.239285 1.236896 17.321785 -0.296127 -10.634924 -8.332047 9.877667 18.156355 1.010971 -11.042372 1.356345 -32.830998 3.239384 0.823153 -8.582382 -1.799015 0.000001 0.000001 0.000000 0.337526 -4.685605 7.880066 0.352094 -2.640969 20.590403 -0.209446 -0.081906 13.844970 -0.000000 0.000000 0.000001 -18.104823 10.740040 17.359766 26.110415 8.936309 2.315506 -6.804726 4.260161 -12.748844 -0.451612 0.000017 -0.000001 -0.000000 0.000001 0.000000 2.267924 -4.238543 11.139109 9.546256 -4.990881 3.380261 -10.981766 1.196652 -8.552106 -0.515119 0.000005 0.000002 -0.000000 -0.000000 -0.000000 
1.452631 85.621490 1.660835 -1.004688 1.242264 -4.727763 0.515384 0.004963 2.884339 1.029914 0.036725 5.502118 1.029914 0.036726 5.502119 1.076530 -0.326079 -2.116508 1.334686 0.339815 -7.435071 -0.000000 -0.000000 0.000000 3.341949 -13.354911 -5.614109 3.723152 2.880273 -82.594179 1.088888 -14.706048 0.299923 -26.020121 2.065171 -9.647896 0.337799 4.686229 -7.886948 0.352035 2.640664 -20.590423 0.025827 0.717436 -10.176832 -0.000001 -0.000001 -0.000000 18.158977 -1.013680 11.037823 1.358242 32.830739 -3.242081 0.962805 9.482670 2.469838 -0.000000 0.000001 0.000001 4.278940 3.483492 6.096630 -1.251184 0.779357 67.087826 2.567392 17.039946 -0.526492 -10.539451 -7.775893 9.487371 18.156361 1.010969 -11.042374 1.356347 -32.831002 3.239417 0.823156 -8.582391 -1.799036 -0.000000 0.000000 -0.000001 0.337527 -4.685609 7.880064 0.352094 -2.640970 20.590365 -0.209446 -0.081905 13.844968 0.000000 -0.000000 -0.000003 -17.826645 10.716574 17.279511 26.324157 9.169848 2.360056 -7.075232 4.310416 -12.975686 -0.449542 -0.000003 0.000001 -0.000000 0.000002 0.000000 2.212479 -4.364074 10.997134 10.228548 -4.674009 3.432660 -11.462651 1.233818 -8.616928 -0.457556 -0.000006 -0.000001 -0.000000 0.000001 0.000000 
1.395576 85.526772 1.902550 -1.082013 1.037134 -4.604891 0.528000 0.013082 2.818236 1.054808 0.053384 5.381090 1.054808 0.053385 5.381096 1.055820 -0.301703 -2.083578 1.169579 0.325753 -7.078465 -0.000001 -0.000000 0.000000 3.221913 -13.156327 -5.871822 3.603862 2.479318 -82.036569 1.818529 -14.721739 0.497708 -25.475598 1.238183 -9.797475 0.337802 4.686225 -7.886927 0.352038 2.640663 -20.590437 0.025827 0.717435 -10.176842 -0.000000 -0.000000 0.000002 18.158975 -1.013680 11.037798 1.358243 32.830749 -3.242071 0.962812 9.482668 2.469822 -0.000000 0.000001 -0.000000 4.157790 3.547888 6.469489 -1.211807 0.947217 66.864437 3.803762 16.982832 -0.661005 -10.376502 -7.256185 9.049006 18.156361 1.010975 -11.042379 1.356351 -32.831005 3.239412 0.823150 -8.582377 -1.799027 0.000000 -0.000001 -0.000001 0.337526 -4.685606 7.880065 0.352094 -2.640972 20.590382 -0.209447 -0.081905 13.844963 -0.000000 -0.000000 -0.000003 -17.530063 10.696444 17.225809 26.557498 9.394711 2.402402 -7.350769 4.368185 -13.226799 -0.432841 0.000000 -0.000001 -0.000000 0.000000 0.000000 2.204500 -4.497252 10.866373 10.885207 -4.351354 3.486266 -11.942665 1.269730 -8.684956 -0.409518 0.000001 0.000002 -0.000000 0.000001 0.000000 
1.333628 85.427002 2.171621 -1.150318 0.829308 -4.487178 0.543036 0.006862 2.748876 1.085150 0.041803 5.245734 1.085149 0.041803 5.245733 1.027669 -0.264310 -2.011368 1.015284 0.363897 -6.705006 -0.000000 0.000000 -0.000000 3.102411 -12.978521 -6.107266 3.438528 2.108235 -81.486479 2.800654 -14.592494 0.752674 -24.913183 0.369833 -9.979384 0.337798 4.686227 -7.886953 0.352039 2.640663 -20.590416 0.025827 0.717435 -10.176839 0.000001 0.000000 -0.000002 18.158973 -1.013681 11.037789 1.358246 32.830749 -3.242071 0.962804 9.482663 2.469821 -0.000000 -0.000002 0.000001 4.032904 3.601084 6.899449 -1.073916 1.227280 66.564790 4.830628 17.183709 -0.691782 -10.166586 -6.753151 8.501225 18.156350 1.010978 -11.042359 1.356356 -32.831005 3.239427 0.823150 -8.582385 -1.799043 -0.000001 0.000002 -0.000001 0.337524 -4.685606 7.880087 0.352095 -2.640969 20.590392 -0.209446 -0.081907 13.844945 -0.000000 -0.000000 -0.000000 -17.237000 10.714550 17.209215 26.794516 9.560457 2.427356 -7.603908 4.440174 -13.512962 -0.410326 0.000004 0.000000 -0.000000 0.000001 0.000000 2.228376 -4.641430 10.737605 11.512850 -4.003657 3.551376 -12.427250 1.306723 -8.769024 -0.362563 0.000003 0.000001 0.000000 -0.000000 -0.000000 
1.267902 85.324989 2.468129 -1.212999 0.610840 -4.362514 0.559823 -0.008110 2.673116 1.119323 0.013344 5.089333 1.119322 0.013344 5.089334 1.019438 -0.231684 -1.909478 0.907429 0.388772 -6.273275 0.000000 -0.000000 0.000000 2.983124 -12.815004 -6.326918 3.232014 1.783603 -80.942653 3.953462 -14.374483 1.040406 -24.333620 -0.521633 -10.182922 0.337799 4.686226 -7.886963 0.352039 2.640664 -20.590428 0.025827 0.717435 -10.176816 -0.000000 -0.000000 0.000003 18.158975 -1.013679 11.037809 1.358236 32.830759 -3.242061 0.962807 9.482674 2.469830 0.000000 -0.000001 0.000001 3.903337 3.658400 7.362981 -0.830784 1.619532 66.212066 5.722872 17.596763 -0.642813 -9.924757 -6.254804 7.802418 18.156350 1.010965 -11.042404 1.356364 -32.830998 3.239443 0.823149 -8.582384 -1.799039 -0.000000 0.000000 0.000002 0.337525 -4.685606 7.880081 0.352094 -2.640970 20.590396 -0.209445 -0.081906 13.844966 -0.000000 0.000000 0.000001 -16.927060 10.780511 17.215280 27.028252 9.689602 2.439359 -7.855005 4.525236 -13.848904 -0.398128 0.000014 -0.000005 -0.000000 -0.000001 0.000000 2.282238 -4.791060 10.594124 12.119100 -3.635695 3.627259 -12.921077 1.345241 -8.863502 -0.345023 -0.000001 -0.000001 -0.000000 0.000001 -0.000000 
1.201617 85.219307 2.789118 -1.297242 0.381508 -4.222460 0.584762 -0.032299 2.588660 1.170088 -0.032794 4.912543 1.170088 -0.032794 4.912543 1.058186 -0.212359 -1.811221 0.844357 0.339758 -5.755410 0.000000 0.000000 -0.000000 2.863763 -12.648779 -6.539322 3.029560 1.448356 -80.384708 5.112651 -14.174617 1.324326 -23.738353 -1.433132 -10.429052 0.337797 4.686225 -7.886944 0.352040 2.640662 -20.590408 0.025828 0.717437 -10.176844 0.000000 0.000000 0.000003 18.158977 -1.013680 11.037811 1.358239 32.830749 -3.242087 0.962810 9.482675 2.469826 -0.000000 0.000001 -0.000000 3.767624 3.742355 7.824612 -0.524343 2.090843 65.835948 6.631356 18.136094 -0.545112 -9.649966 -5.756225 6.982465 18.156352 1.010974 -11.042378 1.356339 -32.831008 3.239378 0.823146 -8.582383 -1.799034 -0.000003 -0.000001 0.000002 0.337529 -4.685605 7.880055 0.352093 -2.640969 20.590416 -0.209447 -0.081905 13.844964 -0.000000 -0.000000 0.000002 -16.558814 10.856683 17.215263 27.250052 9.847246 2.455409 -8.091112 4.610852 -14.249745 -0.354798 -0.000017 0.000000 0.000000 -0.000001 0.000000 2.377834 -4.945626 10.423792 12.736022 -3.253993 3.708619 -13.441578 1.385051 -8.958419 -0.372085 -0.000005 -0.000001 -0.000000 -0.000001 -0.000000 
1.142734 85.097664 3.128854 -1.410766 0.173888 -4.068888 0.623814 -0.071846 2.497467 1.249558 -0.109427 4.725314 1.249558 -0.109427 4.725317 1.142740 -0.195972 -1.747600 0.798076 0.221655 -5.173225 0.000001 -0.000000 0.000000 2.743400 -12.451956 -6.761569 2.859269 1.003509 -79.776487 6.185141 -14.061996 1.590804 -23.133200 -2.385720 -10.725354 0.337796 4.686226 -7.886959 0.352040 2.640664 -20.590430 0.025829 0.717434 -10.176814 0.000000 0.000000 -0.000001 18.158971 -1.013690 11.037779 1.358241 32.830766 -3.242064 0.962821 9.482668 2.469779 -0.000002 -0.000001 -0.000001 3.623894 3.883135 8.266633 -0.193721 2.595823 65.441969 7.592431 18.761129 -0.407908 -9.331644 -5.256303 6.119117 18.156352 1.010973 -11.042375 1.356358 -32.831002 3.239405 0.823145 -8.582391 -1.799016 -0.000003 -0.000002 -0.000001 0.337526 -4.685603 7.880071 0.352097 -2.640969 20.590375 -0.209445 -0.081905 13.844956 -0.000000 -0.000000 -0.000000 -16.169088 10.817247 17.183629 27.490405 10.092878 2.499837 -8.143466 4.675936 -14.750248 -0.222265 0.000016 0.000005 -0.000000 0.000003 -0.000000 2.484299 -5.122847 10.225229 13.467820 -2.856759 3.795388 -14.085293 1.432797 -9.050813 -0.420546 0.000002 0.000002 0.000000 -0.000000 0.000000 
1.102977 84.943153 3.479759 -1.502980 0.062196 -3.909195 0.673413 -0.132476 2.408641 1.350716 -0.228591 4.536955 1.350716 -0.228591 4.536955 1.238236 -0.169886 -1.723239 0.757301 0.078283 -4.580045 0.000000 0.000000 0.000000 2.621058 -12.213509 -7.008809 2.695843 0.386630 -79.092163 7.254682 -14.028245 1.864310 -22.525849 -3.411670 -10.989090 0.337797 4.686224 -7.886952 0.352040 2.640664 -20.590410 0.025827 0.717434 -10.176847 0.000000 -0.000000 -0.000000 18.158977 -1.013675 11.037844 1.358246 32.830745 -3.242096 0.962812 9.482672 2.469807 -0.000000 0.000000 -0.000003 3.472895 4.079176 8.700363 0.152048 3.092635 65.014153 8.559861 19.487739 -0.229864 -8.961080 -4.794810 5.265234 18.156354 1.010966 -11.042394 1.356354 -32.830981 3.239431 0.823157 -8.582386 -1.799033 -0.000003 0.000001 -0.000001 0.337529 -4.685605 7.880062 0.352096 -2.640971 20.590384 -0.209446 -0.081905 13.844978 0.000000 -0.000001 -0.000002 -16.147114 10.424837 16.969634 28.262544 10.668925 2.664849 -7.998418 4.567348 -14.728750 -0.320886 -0.001457 0.303230 -0.000000 0.000001 -0.000000 2.509235 -5.325703 10.014113 14.389670 -2.504637 3.865472 -14.886742 1.485674 -9.111528 -0.463952 0.000003 -0.000000 -0.000000 -0.000001 -0.000000 
